<svg xmlns="http://www.w3.org/2000/svg" xmlns:xlink="http://www.w3.org/1999/xlink" viewBox="0 0 25 25"><defs><style>.cls-1{fill:none;}.cls-2{clip-path:url(#clip-path);}.cls-3{fill:#4f83cc;}.cls-4{fill:#fff;}</style><clipPath id="clip-path" transform="translate(0)"><rect class="cls-1" width="25" height="25"/></clipPath></defs><title>Asset 7</title><g id="Layer_2" data-name="Layer 2"><g id="Mobile_Home" data-name="Mobile Home"><g id="Footer"><g id="FacebookBW"><g class="cls-2"><g class="cls-2"><path class="cls-3" d="M4.38,0H20.63A4.38,4.38,0,0,1,25,4.38V20.63A4.37,4.37,0,0,1,20.63,25H4.38A4.38,4.38,0,0,1,0,20.63V4.38A4.38,4.38,0,0,1,4.38,0" transform="translate(0)"/><path class="cls-4" d="M21.25,11.56H17.34v-3c0-.72.84-.78,1.1-.78h2.65V3.75H18.44a4.9,4.9,0,0,0-5.16,4.84v3H10v4.06h3.28V25h4.06V15.62h3.29Z" transform="translate(0)"/></g></g></g></g></g></g></svg>