<svg xmlns="http://www.w3.org/2000/svg" viewBox="0 0 43.38 43.39"><defs><style>.cls-1{fill:#4f83cc;}.cls-2{fill:#fff;}.cls-3{fill:#83cc4f;}.cls-4{fill:#7c43bd;}</style></defs><title>Asset 1</title><g id="Layer_2" data-name="Layer 2"><g id="Header"><g id="logo_highlight" data-name="logo highlight"><g id="Put_Logo_in_here" data-name="Put Logo in here"><circle class="cls-1" cx="21.7" cy="21.7" r="20.51" transform="matrix(0.95, -0.3, 0.3, 0.95, -5.47, 7.43)"/><path class="cls-2" d="M26.5,42.86a21.72,21.72,0,0,1-21-6.73A21.7,21.7,0,0,1,7.26,5.5,21.69,21.69,0,1,1,26.5,42.86Zm-9.08-40a19.33,19.33,0,1,0,18.71,6A19.35,19.35,0,0,0,17.42,2.84Z"/><path class="cls-2" d="M10.64,25.11a3,3,0,0,1-1,3.2c-1.68,1.4-3.21,1.5-3.76,3.24C5.87,31.55,5.74,26.2,10.64,25.11Z"/><path class="cls-2" d="M20.45,15a2.94,2.94,0,0,1,1.49-3c1.87-1.13,3.4-1,4.21-2.63C26.15,9.35,25.45,14.65,20.45,15Z"/><circle class="cls-2" cx="18.35" cy="23.99" r="8.15"/><path class="cls-2" d="M12.31,17.22a3,3,0,0,1-3.09-1.29C8,14.13,8,12.6,6.33,11.89,6.33,11.89,11.67,12.25,12.31,17.22Z"/><path class="cls-2" d="M16.36,14.51a3,3,0,0,1-1.17-3.14c.46-2.14,1.61-3.16,1-4.87C16.16,6.5,19.55,10.64,16.36,14.51Z"/><path class="cls-2" d="M8.35,21.57a3,3,0,0,1-3,1.45C3.15,22.75,2,21.7.39,22.49.39,22.49,4.2,18.74,8.35,21.57Z"/><path class="cls-3" d="M2.46,28.83a20.53,20.53,0,0,0,26.64,12A18.51,18.51,0,0,0,25,33.06,18.73,18.73,0,0,0,2.46,28.83Z"/><path class="cls-2" d="M26.41,42.47h0A21.3,21.3,0,0,1,1.72,29.1a.79.79,0,0,1,.39-1A19.53,19.53,0,0,1,29.87,40.63a.79.79,0,0,1-.48.93A20.89,20.89,0,0,1,26.41,42.47ZM3.46,29.22a19.73,19.73,0,0,0,22.6,11.71h0a21.61,21.61,0,0,0,2.09-.59A18,18,0,0,0,7,28,18.36,18.36,0,0,0,3.46,29.22Z"/><path class="cls-4" d="M16.81,41.62a20.52,20.52,0,0,0,25-23.79,18.74,18.74,0,0,0-25,23.79Z"/><path class="cls-2" d="M26.42,42.47h0a21.58,21.58,0,0,1-9.79-.09.8.8,0,0,1-.56-.48A19.53,19.53,0,0,1,42.16,17.1a.82.82,0,0,1,.46.58,21.31,21.31,0,0,1-16.2,24.79Zm-9-1.52A19.72,19.72,0,0,0,41.14,18.39,17.95,17.95,0,0,0,17.41,41Z"/></g></g></g></g></svg>