<svg xmlns="http://www.w3.org/2000/svg" viewBox="0 0 30 25"><defs><style>.cls-1{fill:#7c43bd;fill-rule:evenodd;}</style></defs><title>Asset 3</title><g id="Layer_2" data-name="Layer 2"><g id="Mobile_Home" data-name="Mobile Home"><g id="Footer"><g id="Subscribe"><path class="cls-1" d="M15,13.75C12.56,13.75,0,3.61,0,3.61V2.5A2.5,2.5,0,0,1,2.5,0h25A2.5,2.5,0,0,1,30,2.5l0,1.25s-12.42,10-15,10m0,3.44c2.67,0,15-9.69,15-9.69l0,15A2.5,2.5,0,0,1,27.5,25H2.5A2.5,2.5,0,0,1,0,22.5l0-15s12.54,9.69,15,9.69"/></g></g></g></g></svg>