<svg xmlns="http://www.w3.org/2000/svg" xmlns:xlink="http://www.w3.org/1999/xlink" viewBox="0 0 25 25"><defs><style>.cls-1{fill:none;}.cls-2{clip-path:url(#clip-path);}.cls-3{fill:#02579b;}.cls-4{fill:#fff;}</style><clipPath id="clip-path"><rect class="cls-1" width="25" height="25"/></clipPath></defs><title>Asset 8</title><g id="Layer_2" data-name="Layer 2"><g id="Mobile_Home" data-name="Mobile Home"><g id="Footer"><g id="Tumblr_IconBW" data-name="Tumblr IconBW"><g class="cls-2"><g class="cls-2"><path class="cls-3" d="M20.63,25H4.38A4.38,4.38,0,0,1,0,20.63V4.38A4.38,4.38,0,0,1,4.38,0H20.63A4.38,4.38,0,0,1,25,4.38V20.63A4.37,4.37,0,0,1,20.63,25"/><path class="cls-4" d="M16.29,17a2.07,2.07,0,0,1-2.15-.18,1.34,1.34,0,0,1-.39-1V11.41h2.81a.32.32,0,0,0,.32-.32V8.28A.31.31,0,0,0,16.56,8H13.75V4.06H10.94a.31.31,0,0,0-.31.32c0,1.12-.26,2.85-2.93,4.11a.32.32,0,0,0-.19.28v2.64H9.39v4.84s0,4.69,4.37,4.69a5.17,5.17,0,0,0,3.61-1.1.3.3,0,0,0,.09-.31l-.78-2.32a.32.32,0,0,0-.39-.21h0"/></g></g></g></g></g></g></svg>