<svg xmlns="http://www.w3.org/2000/svg" xmlns:xlink="http://www.w3.org/1999/xlink" viewBox="0 0 25 25"><defs><style>.cls-1{fill:none;}.cls-2{clip-path:url(#clip-path);}.cls-3{fill:#84b2ff;}.cls-4{fill:#fff;}</style><clipPath id="clip-path"><rect class="cls-1" width="25" height="25"/></clipPath></defs><title>Asset 6</title><g id="Layer_2" data-name="Layer 2"><g id="Mobile_Home" data-name="Mobile Home"><g id="Footer"><g id="TwitterBW"><g class="cls-2"><g class="cls-2"><path class="cls-3" d="M20.63,25H4.38A4.38,4.38,0,0,1,0,20.63V4.38A4.38,4.38,0,0,1,4.38,0H20.63A4.38,4.38,0,0,1,25,4.38V20.63A4.37,4.37,0,0,1,20.63,25"/><path class="cls-4" d="M18.44,8.12A3.12,3.12,0,0,0,20,6.25a4.3,4.3,0,0,1-1.95.83A3.13,3.13,0,0,0,12.64,10H12.5A9.15,9.15,0,0,1,5.94,6.56a3,3,0,0,0,.93,4.38s-1.25,0-1.56-.32c0,0-.31,1.88,2.5,3.13a1.51,1.51,0,0,1-1.25,0c0,1.21,1.26,2.19,2.81,2.19,0,.86-2.09,1.56-4.68,1.56,4.06,2.81,13.75,2.19,14.37-8.44L20.63,7.5Z"/></g></g></g></g></g></g></svg>