<svg xmlns="http://www.w3.org/2000/svg" xmlns:xlink="http://www.w3.org/1999/xlink" viewBox="0 0 25 25"><defs><style>.cls-1{fill:none;}.cls-2{clip-path:url(#clip-path);}.cls-3{fill:#fff;}.cls-4{fill:#cc984f;}</style><clipPath id="clip-path" transform="translate(0)"><rect class="cls-1" width="25" height="25"/></clipPath></defs><title>Asset 5</title><g id="Layer_2" data-name="Layer 2"><g id="Mobile_Home" data-name="Mobile Home"><g id="Footer"><g id="YoutubeBW"><g class="cls-2"><g class="cls-2"><path class="cls-3" d="M4.38,0H20.63A4.38,4.38,0,0,1,25,4.38V20.63A4.37,4.37,0,0,1,20.63,25H4.38A4.38,4.38,0,0,1,0,20.63V4.38A4.38,4.38,0,0,1,4.38,0" transform="translate(0)"/><path class="cls-4" d="M5.94,5.78H19.06a3.13,3.13,0,0,1,3.13,3.13v7.18a3.13,3.13,0,0,1-3.13,3.13H5.94a3.13,3.13,0,0,1-3.13-3.13V8.91A3.13,3.13,0,0,1,5.94,5.78" transform="translate(0)"/><polygon class="cls-3" points="10 15.54 10 9.46 15 12.5 10 15.54"/></g></g></g></g></g></g></svg>